<svg id="Layer_1" data-name="Layer 1" xmlns="http://www.w3.org/2000/svg" viewBox="0 0 522.58 174.03"><defs><style>.cls-1{fill:#fff;}</style></defs><title>WIZHUB_White</title><path class="cls-1" d="M-524.55,2052.42l-25-38.78a1.67,1.67,0,0,0-1.41-.77H-566a1.66,1.66,0,0,0-1.41.77L-608.79,2078a2.41,2.41,0,0,1-3.54.53,0.77,0.77,0,0,1-.19-0.2l-15.89-24.69a0.55,0.55,0,0,1,0-.59l17.24-27a0.55,0.55,0,0,1,.46-0.25h17v-12.92H-619.2l-25.45,39.55a1.68,1.68,0,0,0,0,1.81l25.06,38.93a1.34,1.34,0,0,0,1.13.62h16.15l17.44-27.09a0.33,0.33,0,0,1,.28-0.15,0.34,0.34,0,0,1,.29.17l17.42,27.07H-550l25.45-39.55A1.68,1.68,0,0,0-524.55,2052.42Zm-16.25,1.2-8.43,13.1a1.34,1.34,0,0,0-.15.3l0,0.05-0.07.09a1.34,1.34,0,0,0-.22.26l-8.19,12.73a1.34,1.34,0,0,0-.18.44,0.33,0.33,0,0,1,0,.09,0.34,0.34,0,0,1-.29.17h-0.12a0.34,0.34,0,0,1-.3-0.18,0.33,0.33,0,0,1,0-.09,1.34,1.34,0,0,0-.18-0.44l-8.19-12.73a1.35,1.35,0,0,0-.22-0.26l-0.07-.09,0-.05a1.34,1.34,0,0,0-.15-0.3l-8.43-13.1a0.55,0.55,0,0,1,0-.59l8.43-13.1a1.35,1.35,0,0,0,.15-0.3l0-.05,0.07-.09a1.35,1.35,0,0,0,.21-0.26l8.19-12.73a1.33,1.33,0,0,0,.18-0.44,0.34,0.34,0,0,1,0-.09,0.34,0.34,0,0,1,.29-0.17h0.12a0.34,0.34,0,0,1,.29.17,0.34,0.34,0,0,1,0,.09,1.34,1.34,0,0,0,.18.44l8.19,12.73a1.33,1.33,0,0,0,.22.26l0.07,0.09,0,0.05a1.35,1.35,0,0,0,.15.3l8.43,13.1A0.55,0.55,0,0,1-540.79,2053.62Zm51,0.66-25,38.78a1.66,1.66,0,0,1-1.41.77h-13a1.77,1.77,0,0,1-.89-2.57l23.4-36.62a2.35,2.35,0,0,0,0-2.52l-23.4-36.62a1.77,1.77,0,0,1,.89-2.57h13a1.67,1.67,0,0,1,1.4.77l25,38.78A1.67,1.67,0,0,1-489.75,2054.28Zm-173.46-.61a0.55,0.55,0,0,1,0-.59l24.3-38a1.77,1.77,0,0,0-1.69-2.14h-12.49a1.67,1.67,0,0,0-1.41.77l-25,38.78a1.68,1.68,0,0,0,0,1.81l25,38.78a1.67,1.67,0,0,0,1.41.77h13a1.77,1.77,0,0,0,.89-2.57Z" transform="translate(845.89 -2012.87)"/><polygon class="cls-1" points="68.68 132.57 61.56 114.38 61.45 114.24 61.25 114.11 61.09 114.06 47.01 114.06 46.84 114.11 46.64 114.24 46.54 114.38 31.64 152.43 30.96 152.43 15.99 113.94 15.88 113.8 15.84 113.77 15.69 113.67 15.69 113.67 15.67 113.67 15.52 113.62 0.42 113.62 0.17 113.75 0.03 113.96 0 114.23 0.14 114.58 21 167.98 21.03 167.98 23.27 173.71 23.39 173.85 23.45 173.89 23.46 173.92 23.54 173.97 23.7 174.03 37.75 174.03 37.91 173.97 38.11 173.85 38.22 173.71 53.72 135.63 54.38 135.63 69.88 173.71 69.98 173.85 70.18 173.97 70.34 174.03 84.39 174.03 84.86 173.62 68.69 132.59 68.68 132.57"/><polygon class="cls-1" points="108.07 113.96 107.92 113.75 107.68 113.62 92.58 113.62 92.42 113.67 92.41 113.67 92.41 113.67 92.26 113.77 92.22 113.8 92.1 113.94 78.99 147.66 87.04 168.03 87.06 167.98 87.1 167.98 107.96 114.58 108.09 114.23 108.07 113.96"/><polygon class="cls-1" points="145.21 114.11 145.21 173.55 145.13 173.76 144.93 173.95 144.72 174.03 130.81 174.03 130.6 173.95 130.41 173.76 130.33 173.55 130.33 132.74 130.41 132.53 130.6 132.34 130.81 132.25 137.44 132.25 130.33 125.14 130.33 114.11 130.41 113.9 130.6 113.71 130.81 113.62 144.72 113.62 144.93 113.71 145.13 113.9 145.21 114.11"/><polygon class="cls-1" points="238.08 114.1 238 113.89 237.81 113.7 237.6 113.62 169.72 113.62 169.52 113.7 169.33 113.89 169.25 114.1 169.25 126.95 169.33 127.16 169.52 127.35 169.72 127.44 212.61 127.44 212.83 128.09 167.63 162.67 167.55 162.78 167.46 162.95 167.43 163.08 167.43 173.54 167.52 173.75 167.71 173.94 167.91 174.03 176.08 174.03 238.08 125.89 238.08 114.1"/><polygon class="cls-1" points="239.93 160.69 239.93 173.54 239.84 173.76 239.65 173.94 239.45 174.03 181.36 174.03 199.16 160.21 239.45 160.21 239.66 160.29 239.84 160.48 239.93 160.69"/><polygon class="cls-1" points="315.38 136.06 277.45 136.06 277.04 135.65 277.04 114.1 276.95 113.89 276.76 113.71 276.56 113.62 262.64 113.62 262.43 113.7 262.25 113.89 262.16 114.1 262.16 173.55 262.25 173.75 262.43 173.94 262.64 174.03 276.56 174.03 276.76 173.94 276.95 173.75 277.04 173.55 277.04 150.3 277.45 149.88 315.46 149.88 315.75 149.58 315.67 136.35 315.38 136.06"/><polygon class="cls-1" points="333.8 113.7 333.6 113.62 319.68 113.62 319.47 113.71 319.33 113.85 319.24 114.06 319.6 173.73 319.9 174.03 333.6 174.03 333.8 173.94 333.99 173.75 334.08 173.55 334.08 114.1 333.99 113.89 333.8 113.7"/><path class="cls-1" d="M-455.59,2173.08h-12.57a6.38,6.38,0,0,1-4.65-1.94,6.76,6.76,0,0,1-1.9-4.82V2127l-0.09-.21-0.19-.18-0.21-.09h-13.92l-0.21.09-0.19.18-0.09.21v42.19a17.51,17.51,0,0,0,5,12.55,16.42,16.42,0,0,0,12.18,5.19h16.9l0.29-.3-0.08-13.23Z" transform="translate(845.89 -2012.87)"/><path class="cls-1" d="M-417.63,2126.58l-0.21-.09h-13.92l-0.21.09-0.19.18-0.09.21v39.35a6.71,6.71,0,0,1-1.9,4.78,6.72,6.72,0,0,1-4.65,2h-12.51l-0.29.3,0.08,13.23,0.29,0.29h16.67a16.37,16.37,0,0,0,12.19-5.19,17.32,17.32,0,0,0,5-12.55V2127l-0.09-.21Z" transform="translate(845.89 -2012.87)"/><path class="cls-1" d="M-325.66,2161.17a16.78,16.78,0,0,0-5.54-5.78l-0.07-.64a17,17,0,0,0,3.27-4.88,16.57,16.57,0,0,0,1.41-6.73,15.86,15.86,0,0,0-4.69-11.77,15.45,15.45,0,0,0-11.46-4.88h-51.91l-0.21.08-0.19.19-0.09.21V2170h14.92l0-7.08,0.41-.42h36.17a4.83,4.83,0,0,1,3.65,1.59,5.49,5.49,0,0,1,1.59,4,5,5,0,0,1-1.55,4,5,5,0,0,1-3.8,1.63h-51.35v12.68l0.09,0.21,0.19,0.18,0.21,0.09h54.88a15.57,15.57,0,0,0,11.64-4.93,16.89,16.89,0,0,0,4.81-12.06A17,17,0,0,0-325.66,2161.17Zm-17.93-11.89a5,5,0,0,1-3.8,1.63h-32.43l-0.41-.42v-10.38l0.41-.41h32.43a5,5,0,0,1,3.79,1.63,5.43,5.43,0,0,1,1.56,4A5.5,5.5,0,0,1-343.59,2149.27Z" transform="translate(845.89 -2012.87)"/></svg>