<svg id="Layer_1" data-name="Layer 1" xmlns="http://www.w3.org/2000/svg" viewBox="0 0 30 30"><defs><style>.cls-1{fill:#0060d2;}</style></defs><title>Blockchain_Icon</title><g id="surface1"><path class="cls-1" d="M717.37,187.34a1.3,1.3,0,0,0-1.29-1.29h-3.4v2.59h3.4A1.3,1.3,0,0,0,717.37,187.34Z" transform="translate(-699.59 -170.14)"/><path class="cls-1" d="M716.48,182.93a1.3,1.3,0,0,0-1.29-1.29h-2.51v2.59h2.51A1.3,1.3,0,0,0,716.48,182.93Z" transform="translate(-699.59 -170.14)"/><path class="cls-1" d="M714.59,170.14a15,15,0,1,0,15,15A15,15,0,0,0,714.59,170.14Zm-11.3,12.4a11.6,11.6,0,0,1,22.61,0,0.91,0.91,0,1,1-1.77.41,9.78,9.78,0,0,0-19.06,0A0.91,0.91,0,1,1,703.29,182.54Zm8.48,7.92a0.91,0.91,0,0,1-.91-0.91v-8.81a0.91,0.91,0,0,1,.91-0.91h1.74v-1.29a0.91,0.91,0,0,1,1.82,0v1.3a3.11,3.11,0,0,1,2.41,4.89,3.11,3.11,0,0,1-1.66,5.74h-0.75v1.29a0.91,0.91,0,0,1-1.82,0v-1.29h-1.74Zm14.13-2.72a11.6,11.6,0,0,1-22.61,0,0.91,0.91,0,1,1,1.77-.41,9.78,9.78,0,0,0,19.06,0A0.91,0.91,0,1,1,725.9,187.73Z" transform="translate(-699.59 -170.14)"/></g></svg>