<svg id="Layer_1" data-name="Layer 1" xmlns="http://www.w3.org/2000/svg" viewBox="0 0 30 30"><defs><style>.cls-1{fill:#0060d2;}</style></defs><title>EnterpriseDev_Icon</title><path class="cls-1" d="M809.16,197.5a2.64,2.64,0,1,0,3.52-2.47V193a7.7,7.7,0,0,0,1.76-.39v-2.17a2.64,2.64,0,0,0-5.27,0v2.17a7.7,7.7,0,0,0,1.76.39V195A2.63,2.63,0,0,0,809.16,197.5Z" transform="translate(-796.8 -170.14)"/><path class="cls-1" d="M813.55,184.26A1.76,1.76,0,1,0,811.8,186,1.76,1.76,0,0,0,813.55,184.26Z" transform="translate(-796.8 -170.14)"/><path class="cls-1" d="M824.16,182.5a2.63,2.63,0,0,0-2.47,1.76h-2.07a7.82,7.82,0,0,0-1.67-4l1.43-1.43a2.57,2.57,0,0,0,3-.5,2.64,2.64,0,1,0-4.22-.75L816.71,179a7.82,7.82,0,0,0-4-1.67v-2.07a2.64,2.64,0,1,0-1.76,0v2.07a7.82,7.82,0,0,0-4,1.67l-1.43-1.43a2.63,2.63,0,1,0-4.22.75,2.57,2.57,0,0,0,3,.5l1.43,1.43a7.82,7.82,0,0,0-1.67,4h-2.07a2.64,2.64,0,1,0,0,1.76H804a7.9,7.9,0,0,0,1.68,4l-1.43,1.43a2.64,2.64,0,1,0,1.24,1.24l1.43-1.43c0.16,0.13.34,0.23,0.52,0.35v-1.23a4.39,4.39,0,0,1,1.94-3.64,3.52,3.52,0,1,1,4.91,0,4.39,4.39,0,0,1,1.94,3.64v1.23c0.17-.12.35-0.22,0.52-0.35l1.43,1.43a2.64,2.64,0,1,0,1.24-1.24L817.95,190a7.9,7.9,0,0,0,1.68-4h2.06A2.63,2.63,0,1,0,824.16,182.5Z" transform="translate(-796.8 -170.14)"/></svg>