<svg id="Layer_1" data-name="Layer 1" xmlns="http://www.w3.org/2000/svg" viewBox="0 0 30 30"><defs><style>.cls-1{fill:#0060d2;}</style></defs><title>WebAppDev_Icon</title><path class="cls-1" d="M775.55,170.14H750.83a2.69,2.69,0,0,0-2.59,2.28,3,3,0,0,0,0,.53v15.94h17.7V184.2a4.55,4.55,0,0,1,4.39-4.69h5.27a4.18,4.18,0,0,1,2.64,1v-7.52A2.73,2.73,0,0,0,775.55,170.14Zm-15.61,3.5a0.5,0.5,0,1,1-.47.5A0.48,0.48,0,0,1,759.94,173.64Zm-1.87,0a0.5,0.5,0,1,1-.47.5A0.48,0.48,0,0,1,758.06,173.64Zm-7.5,0h4.69a0.5,0.5,0,0,1,0,1h-4.69A0.5,0.5,0,0,1,750.56,173.64Zm3.14,11.15a0.52,0.52,0,0,1,0,.71,0.45,0.45,0,0,1-.66,0l-1.87-2a0.52,0.52,0,0,1,0-.71l1.88-2a0.45,0.45,0,0,1,.66,0,0.52,0.52,0,0,1,0,.71l-1.54,1.65Zm3.84-3.42-1.87,4a0.46,0.46,0,0,1-.63.22,0.52,0.52,0,0,1-.21-0.67l1.88-4a0.46,0.46,0,0,1,.63-0.22A0.52,0.52,0,0,1,757.55,181.36Zm3.66,2.13-1.87,2a0.45,0.45,0,0,1-.66,0,0.52,0.52,0,0,1,0-.71l1.54-1.65-1.54-1.65a0.52,0.52,0,0,1,0-.71,0.45,0.45,0,0,1,.66,0l1.88,2A0.52,0.52,0,0,1,761.21,183.49Zm0.61-3.85H750.56a0.5,0.5,0,0,1,0-1h11.25A0.5,0.5,0,0,1,761.81,179.64Zm0-5a0.5,0.5,0,1,1,.47-0.5A0.48,0.48,0,0,1,761.81,174.64Z" transform="translate(-748.19 -170.14)"/><path class="cls-1" d="M778.19,197.32v-0.94H767.64v0.94a2.73,2.73,0,0,0,2.64,2.81h5.27A2.73,2.73,0,0,0,778.19,197.32Z" transform="translate(-748.19 -170.14)"/><path class="cls-1" d="M767.64,187v7.5h10.55V187H767.64Zm3.12,5.18a0.46,0.46,0,0,1,0,.61,0.39,0.39,0,0,1-.58,0l-1.63-1.74a0.46,0.46,0,0,1,0-.61l1.63-1.74a0.39,0.39,0,0,1,.58,0,0.46,0.46,0,0,1,0,.61l-1.34,1.43Zm3.33-3-1.63,3.47a0.4,0.4,0,0,1-.55.19,0.45,0.45,0,0,1-.18-0.58l1.63-3.47a0.4,0.4,0,0,1,.55-0.19A0.45,0.45,0,0,1,774.1,189.22Zm3.18,1.85-1.63,1.74a0.39,0.39,0,0,1-.58,0,0.46,0.46,0,0,1,0-.61l1.34-1.43-1.34-1.43a0.45,0.45,0,0,1,0-.61,0.39,0.39,0,0,1,.58,0l1.63,1.74A0.46,0.46,0,0,1,777.28,191.07Z" transform="translate(-748.19 -170.14)"/><path class="cls-1" d="M778.19,184.2a2.73,2.73,0,0,0-2.64-2.81h-5.27a2.73,2.73,0,0,0-2.64,2.81v0.94h10.55V184.2Z" transform="translate(-748.19 -170.14)"/><path class="cls-1" d="M750.83,194.51h15.06v-3.75h-17.7v0.94A2.73,2.73,0,0,0,750.83,194.51Z" transform="translate(-748.19 -170.14)"/><path class="cls-1" d="M765.88,197.32v-0.94h-8l-0.59,1.88H754.4a0.94,0.94,0,0,0,0,1.88h12.39A4.84,4.84,0,0,1,765.88,197.32Z" transform="translate(-748.19 -170.14)"/></svg>