<svg id="Layer_1" data-name="Layer 1" xmlns="http://www.w3.org/2000/svg" viewBox="0 0 19.34 30"><defs><style>.cls-1{fill:#0060d2;}</style></defs><title>YourIdea_Icon</title><path class="cls-1" d="M858.26,170.35a9.66,9.66,0,0,0-5.71,15.18,7.75,7.75,0,0,1,1.63,4.55v1.15h12.31v-1.15a7.52,7.52,0,0,1,1.59-4.48A9.55,9.55,0,0,0,870,179.8,9.68,9.68,0,0,0,858.26,170.35Zm2.07,19.12a0.88,0.88,0,1,1,.88-0.88A0.88,0.88,0,0,1,860.33,189.47Z" transform="translate(-850.66 -170.14)"/><path class="cls-1" d="M866.48,193.92V193H854.18v0.94a2.69,2.69,0,0,0,2.64,2.7h7A2.69,2.69,0,0,0,866.48,193.92Z" transform="translate(-850.66 -170.14)"/><path class="cls-1" d="M860.33,200.14a4.38,4.38,0,0,0,3.49-1.76h-7A4.38,4.38,0,0,0,860.33,200.14Z" transform="translate(-850.66 -170.14)"/></svg>